<?xml version="1.0" encoding="UTF-8"?>
<svg id="Ebene_1" xmlns="http://www.w3.org/2000/svg" version="1.1" viewBox="0 0 3126.1 669.4">
  <!-- Generator: Adobe Illustrator 29.3.1, SVG Export Plug-In . SVG Version: 2.1.0 Build 151)  -->
  <path fill="#101010" d="M248.4,444.8l66.2-224.1h109l64.8,224.1,60-224.1h111l-122.8,386.2h-107.6l-69-242.8-69,242.8h-106.9L62.8,220.7h126.2l59.3,224.1Z"/>
  <path fill="#101010" d="M653.2,416.6c0-122.1,80-203.4,201.4-203.4s195.2,76.6,195.2,204.8v30.3h-277.2c5.5,52.4,39.3,79.3,89,79.3s74.5-24.8,86.2-56.6l100.7,30.3c-26.2,70.3-83.4,114.5-191.7,114.5-126.2-.7-203.4-77.9-203.4-199.3ZM772.5,375.2h155.2c-3.4-51.7-27.6-76.6-75.2-76.6s-73.8,27.6-80,76.6Z"/>
  <path fill="#101010" d="M1245.6,413.1c0-119.3,80.7-200.7,204.8-200.7s159.3,49,184.8,127.6l-114.5,30.3c-9-36.6-26.2-65.5-69.7-65.5s-79.3,40.7-79.3,106.2v4.8c0,66.2,26.9,106.2,76.6,106.2s66.9-26.2,75.2-69.7l114.5,26.9c-23.4,82.8-80.7,135.2-189.7,135.2-127.6.7-202.8-77.9-202.8-201.4Z"/>
  <path fill="#101010" d="M1805.6,287.6c12.4-42.8,42.8-69.7,109-69.7h9v111.7h-45.5c-57.2,0-71.7,25.5-71.7,83.4v193.1h-124.8V220h124.8v67.6h-.7Z"/>
  <path fill="#101010" d="M1940.1,505.5c0-86.9,69-106.2,150.3-122.8,66.9-13.8,105.5-16.6,108.3-37.9v-2.8c0-23.4-18.6-40.7-62.1-40.7s-66.2,22.1-69,53.1v6.2h-118.6c1.4-89.7,71.7-149,189-149s180.7,47.6,180.7,158.6v235.9h-121.4v-52.4c-22.8,39.3-66.2,64.1-124.8,64.1-80.7-.7-132.4-44.8-132.4-112.4ZM2198.7,457.9v-38.6c-18.6,9.7-46.9,15.9-73.1,22.1-34.5,9.7-61.4,21.4-61.4,53.8s17.2,40,48.3,40c40,.7,82.1-20,86.2-77.2Z"/>
  <path fill="#101010" d="M2409.7,311.7h-56.6v-91h56.6v-24.8c0-95.9,26.9-131.7,113.1-139.3h84.1v95.9h-25.5c-45.5,0-55.9,2.8-53.8,57.2l.7,10.3h72.4v91h-70.3v295.2h-121.4v-294.5h.7Z"/>
  <path fill="#101010" d="M2779.4,606.9c-80-5.5-95.9-42.8-97.2-111v-187.6h-51.7v-87.6h51.7v-75.2l122.1-60v135.2h69.7v87.6h-70.3v182.1c0,17.2,8.3,24.8,25.5,25.5h42.8v91h-92.4Z"/>
  <path fill="#101010" d="M3057.3,606.9h-133.1v-132.4h133.1v132.4Z"/>
</svg>